<mxfile host="app.diagrams.net" agent="Mozilla/5.0 (Windows NT 10.0; Win64; x64) AppleWebKit/537.36 (KHTML, like Gecko) Chrome/131.0.0.0 Safari/537.36" version="25.0.1">
  <diagram name="Page-1" id="8qg7KSSjWDyK8bKFyOf4">
    <mxGraphModel dx="957" dy="441" grid="1" gridSize="10" guides="1" tooltips="1" connect="1" arrows="1" fold="1" page="1" pageScale="1" pageWidth="850" pageHeight="1100" math="0" shadow="0">
      <root>
        <mxCell id="0" />
        <mxCell id="1" parent="0" />
        <mxCell id="Wlit7dpWgTV-Mipl9ggA-3" style="edgeStyle=orthogonalEdgeStyle;rounded=0;orthogonalLoop=1;jettySize=auto;html=1;exitX=0.5;exitY=1;exitDx=0;exitDy=0;entryX=0.5;entryY=0;entryDx=0;entryDy=0;" edge="1" parent="1" source="Wlit7dpWgTV-Mipl9ggA-1" target="Wlit7dpWgTV-Mipl9ggA-2">
          <mxGeometry relative="1" as="geometry" />
        </mxCell>
        <mxCell id="Wlit7dpWgTV-Mipl9ggA-1" value="Begin" style="ellipse;whiteSpace=wrap;html=1;" vertex="1" parent="1">
          <mxGeometry x="350" y="30" width="100" height="50" as="geometry" />
        </mxCell>
        <mxCell id="Wlit7dpWgTV-Mipl9ggA-5" style="edgeStyle=orthogonalEdgeStyle;rounded=0;orthogonalLoop=1;jettySize=auto;html=1;exitX=0.5;exitY=1;exitDx=0;exitDy=0;entryX=0.5;entryY=0;entryDx=0;entryDy=0;" edge="1" parent="1" source="Wlit7dpWgTV-Mipl9ggA-2" target="Wlit7dpWgTV-Mipl9ggA-4">
          <mxGeometry relative="1" as="geometry" />
        </mxCell>
        <mxCell id="Wlit7dpWgTV-Mipl9ggA-2" value="Khởi tạo cảm biến, wifi, và các biến chương trình" style="rounded=0;whiteSpace=wrap;html=1;" vertex="1" parent="1">
          <mxGeometry x="340" y="110" width="120" height="60" as="geometry" />
        </mxCell>
        <mxCell id="Wlit7dpWgTV-Mipl9ggA-4" value="Đọc giá trị cảm biến" style="rounded=0;whiteSpace=wrap;html=1;" vertex="1" parent="1">
          <mxGeometry x="340" y="200" width="120" height="60" as="geometry" />
        </mxCell>
        <mxCell id="Wlit7dpWgTV-Mipl9ggA-9" style="edgeStyle=orthogonalEdgeStyle;rounded=0;orthogonalLoop=1;jettySize=auto;html=1;exitX=0;exitY=0.5;exitDx=0;exitDy=0;exitPerimeter=0;entryX=1;entryY=0.5;entryDx=0;entryDy=0;" edge="1" parent="1" source="Wlit7dpWgTV-Mipl9ggA-6" target="Wlit7dpWgTV-Mipl9ggA-8">
          <mxGeometry relative="1" as="geometry" />
        </mxCell>
        <mxCell id="Wlit7dpWgTV-Mipl9ggA-6" value="Thay đổi mode hoạt động ?" style="strokeWidth=2;html=1;shape=mxgraph.flowchart.decision;whiteSpace=wrap;" vertex="1" parent="1">
          <mxGeometry x="325" y="280" width="150" height="80" as="geometry" />
        </mxCell>
        <mxCell id="Wlit7dpWgTV-Mipl9ggA-7" style="edgeStyle=orthogonalEdgeStyle;rounded=0;orthogonalLoop=1;jettySize=auto;html=1;exitX=0.5;exitY=1;exitDx=0;exitDy=0;entryX=0.5;entryY=0;entryDx=0;entryDy=0;entryPerimeter=0;" edge="1" parent="1" source="Wlit7dpWgTV-Mipl9ggA-4" target="Wlit7dpWgTV-Mipl9ggA-6">
          <mxGeometry relative="1" as="geometry" />
        </mxCell>
        <mxCell id="Wlit7dpWgTV-Mipl9ggA-8" value="Xóa màn hình LCD và cập nhật trạng thái" style="rounded=0;whiteSpace=wrap;html=1;" vertex="1" parent="1">
          <mxGeometry x="160" y="290" width="120" height="60" as="geometry" />
        </mxCell>
        <mxCell id="Wlit7dpWgTV-Mipl9ggA-13" value="" style="edgeStyle=orthogonalEdgeStyle;rounded=0;orthogonalLoop=1;jettySize=auto;html=1;" edge="1" parent="1" source="Wlit7dpWgTV-Mipl9ggA-10" target="Wlit7dpWgTV-Mipl9ggA-12">
          <mxGeometry relative="1" as="geometry" />
        </mxCell>
        <mxCell id="Wlit7dpWgTV-Mipl9ggA-10" value="mode== NORMAL" style="strokeWidth=2;html=1;shape=mxgraph.flowchart.decision;whiteSpace=wrap;" vertex="1" parent="1">
          <mxGeometry x="150" y="380" width="140" height="60" as="geometry" />
        </mxCell>
        <mxCell id="Wlit7dpWgTV-Mipl9ggA-11" style="edgeStyle=orthogonalEdgeStyle;rounded=0;orthogonalLoop=1;jettySize=auto;html=1;entryX=0.5;entryY=0;entryDx=0;entryDy=0;entryPerimeter=0;" edge="1" parent="1" source="Wlit7dpWgTV-Mipl9ggA-8" target="Wlit7dpWgTV-Mipl9ggA-10">
          <mxGeometry relative="1" as="geometry" />
        </mxCell>
        <mxCell id="Wlit7dpWgTV-Mipl9ggA-12" value="reset biến start_time" style="rounded=0;whiteSpace=wrap;html=1;" vertex="1" parent="1">
          <mxGeometry x="10" y="380" width="120" height="60" as="geometry" />
        </mxCell>
        <mxCell id="Wlit7dpWgTV-Mipl9ggA-14" value="True" style="text;strokeColor=none;align=center;fillColor=none;html=1;verticalAlign=middle;whiteSpace=wrap;rounded=0;" vertex="1" parent="1">
          <mxGeometry x="290" y="300" width="50" height="20" as="geometry" />
        </mxCell>
        <mxCell id="Wlit7dpWgTV-Mipl9ggA-15" value="True" style="text;strokeColor=none;align=center;fillColor=none;html=1;verticalAlign=middle;whiteSpace=wrap;rounded=0;" vertex="1" parent="1">
          <mxGeometry x="120" y="390" width="50" height="20" as="geometry" />
        </mxCell>
        <mxCell id="Wlit7dpWgTV-Mipl9ggA-20" style="edgeStyle=orthogonalEdgeStyle;rounded=0;orthogonalLoop=1;jettySize=auto;html=1;exitX=1;exitY=0.5;exitDx=0;exitDy=0;exitPerimeter=0;entryX=0;entryY=0.5;entryDx=0;entryDy=0;" edge="1" parent="1" source="Wlit7dpWgTV-Mipl9ggA-16" target="Wlit7dpWgTV-Mipl9ggA-19">
          <mxGeometry relative="1" as="geometry" />
        </mxCell>
        <mxCell id="Wlit7dpWgTV-Mipl9ggA-16" value="MQ2_value&amp;gt;700 ?" style="strokeWidth=2;html=1;shape=mxgraph.flowchart.decision;whiteSpace=wrap;" vertex="1" parent="1">
          <mxGeometry x="330" y="400" width="140" height="60" as="geometry" />
        </mxCell>
        <mxCell id="Wlit7dpWgTV-Mipl9ggA-17" style="edgeStyle=orthogonalEdgeStyle;rounded=0;orthogonalLoop=1;jettySize=auto;html=1;exitX=0.5;exitY=1;exitDx=0;exitDy=0;exitPerimeter=0;entryX=0.5;entryY=0;entryDx=0;entryDy=0;entryPerimeter=0;" edge="1" parent="1" source="Wlit7dpWgTV-Mipl9ggA-6" target="Wlit7dpWgTV-Mipl9ggA-16">
          <mxGeometry relative="1" as="geometry" />
        </mxCell>
        <mxCell id="Wlit7dpWgTV-Mipl9ggA-19" value="&lt;div style=&quot;text-align: justify;&quot;&gt;&lt;span style=&quot;background-color: initial;&quot;&gt;- LCD nhấp nháy hiển thị emergency mode&lt;/span&gt;&lt;/div&gt;&lt;div style=&quot;text-align: justify;&quot;&gt;&lt;span style=&quot;background-color: initial;&quot;&gt;- Còi buzzer kêu liên tục&lt;/span&gt;&lt;/div&gt;&lt;div style=&quot;text-align: justify;&quot;&gt;- Bật động cơ quạt thổi khí gas&lt;/div&gt;" style="rounded=0;whiteSpace=wrap;html=1;" vertex="1" parent="1">
          <mxGeometry x="510" y="402.82" width="240" height="54.37" as="geometry" />
        </mxCell>
      </root>
    </mxGraphModel>
  </diagram>
</mxfile>
